<svg width="42" height="42" viewBox="0 0 42 42" fill="none" xmlns="http://www.w3.org/2000/svg">
<path d="M24.8886 9.19948L32.128 16.4389C34.3808 14.224 34.5201 11.2624 32.2926 9.0476C30.0651 6.83276 27.1161 6.94666 24.8886 9.19948ZM23.5218 10.579C22.2055 11.8826 21.6107 13.4014 21.7752 14.8948L10.0302 27.5004C9.52396 28.0573 9.47333 28.766 10.0935 29.4495L8.41021 31.5884C8.20771 31.8415 8.22036 32.2212 8.48615 32.487L8.85318 32.854C9.11896 33.1198 9.48599 33.1451 9.76443 32.9173L11.9033 31.234C12.5488 31.8542 13.2829 31.8035 13.8144 31.2973L20.1046 25.4501V32.2845C20.1046 33.0059 20.6741 33.5628 21.3955 33.5628C22.1169 33.5628 22.6865 33.0059 22.6865 32.2845V24.8173L22.5979 23.1467L26.4327 19.5903C27.9135 19.7421 29.4576 19.1346 30.7485 17.8184L23.5218 10.579ZM11.5996 28.5889L22.5599 17.0464C22.7751 17.3754 23.0282 17.6918 23.3319 17.9956C23.623 18.2993 23.9394 18.5651 24.2558 18.7803L12.7513 29.7406L11.5996 28.5889Z" fill="white" fill-opacity="0.8"/>
</svg>
