<svg width="45" height="44" viewBox="0 0 45 44" fill="none" xmlns="http://www.w3.org/2000/svg">
<rect x="0.879028" y="0.803375" width="43.2" height="43.1999" rx="21.6" fill="white" fill-opacity="0.2"/>
<path d="M13.7023 18.4251H31.2557C31.7459 18.4251 32.1419 18.0197 32.1419 17.5295C32.1419 17.0393 31.7459 16.6434 31.2557 16.6434H13.7023C13.2027 16.6434 12.8162 17.0393 12.8162 17.5295C12.8162 18.0197 13.2121 18.4251 13.7023 18.4251ZM15.6537 23.2989H29.342C29.8322 23.2989 30.2281 22.8936 30.2281 22.4033C30.2281 21.9037 29.8416 21.5078 29.342 21.5078H15.6537C15.1541 21.5078 14.7676 21.9131 14.7676 22.4033C14.7676 22.8841 15.1635 23.2989 15.6537 23.2989ZM17.5675 28.1633H27.4283C27.9279 28.1633 28.3144 27.758 28.3144 27.2678C28.3144 26.7775 27.9279 26.3816 27.4283 26.3816H17.5675C17.0678 26.3816 16.6813 26.7775 16.6813 27.2678C16.6813 27.758 17.0678 28.1633 17.5675 28.1633Z" fill="white"/>
</svg>
