<svg width="42" height="41" viewBox="0 0 42 41" fill="none" xmlns="http://www.w3.org/2000/svg">
<path d="M14.7918 33.7634C13.6229 33.7634 12.7444 33.473 12.1562 32.8923C11.5755 32.319 11.2852 31.4554 11.2852 30.3014V17.6374C11.2852 16.4834 11.5755 15.6198 12.1562 15.0465C12.7444 14.4658 13.6229 14.1754 14.7918 14.1754H27.3665C28.5279 14.1754 29.4027 14.4658 29.9909 15.0465C30.579 15.6198 30.8731 16.4834 30.8731 17.6374V30.3014C30.8731 31.448 30.5939 32.3116 30.0356 32.8923C29.4772 33.473 28.6992 33.7634 27.7015 33.7634H14.7918ZM14.8141 31.9654H27.668C28.0552 31.9654 28.3865 31.8165 28.6619 31.5187C28.9374 31.2209 29.0751 30.7816 29.0751 30.2009V17.7267C29.0751 17.1534 28.9225 16.7179 28.6173 16.4201C28.312 16.1223 27.8839 15.9734 27.333 15.9734H14.8141C14.2557 15.9734 13.8276 16.1223 13.5298 16.4201C13.232 16.7179 13.0831 17.1534 13.0831 17.7267V30.2009C13.0831 30.7816 13.232 31.2209 13.5298 31.5187C13.8276 31.8165 14.2557 31.9654 14.8141 31.9654ZM13.7197 12.3774C13.8016 11.8712 13.9765 11.484 14.2446 11.216C14.5126 10.9405 14.9258 10.8028 15.4842 10.8028H26.6629C27.2213 10.8028 27.6345 10.9405 27.9025 11.216C28.1706 11.484 28.3455 11.8712 28.4274 12.3774H13.7197ZM15.6629 9.284C15.6926 8.80752 15.8415 8.45016 16.1096 8.21191C16.385 7.96623 16.7796 7.84338 17.2933 7.84338H24.8538C25.3675 7.84338 25.7584 7.96623 26.0264 8.21191C26.3019 8.45016 26.4582 8.80752 26.4954 9.284H15.6629Z" fill="white" fill-opacity="0.8"/>
</svg>