<svg width="44" height="44" viewBox="0 0 44 44" fill="none" xmlns="http://www.w3.org/2000/svg">
    <rect x="0.519287" y="0.803375" width="43.2" height="43.2" rx="21.6" fill="white" fill-opacity="0.1"/>
    <path d="M15.6392 20.9634C14.4512 20.9634 13.4792 21.9354 13.4792 23.1234C13.4792 24.3114 14.4512 25.2834 15.6392 25.2834C16.8272 25.2834 17.7992 24.3114 17.7992 23.1234C17.7992 21.9354 16.8272 20.9634 15.6392 20.9634ZM28.5992 20.9634C27.4112 20.9634 26.4392 21.9354 26.4392 23.1234C26.4392 24.3114 27.4112 25.2834 28.5992 25.2834C29.7872 25.2834 30.7592 24.3114 30.7592 23.1234C30.7592 21.9354 29.7872 20.9634 28.5992 20.9634ZM22.1192 20.9634C20.9312 20.9634 19.9592 21.9354 19.9592 23.1234C19.9592 24.3114 20.9312 25.2834 22.1192 25.2834C23.3072 25.2834 24.2792 24.3114 24.2792 23.1234C24.2792 21.9354 23.3072 20.9634 22.1192 20.9634Z" fill="white"/>
</svg>